<?xml version="1.0" standalone="no"?>
<!DOCTYPE svg PUBLIC "-//W3C//DTD SVG 1.1//EN" "http://www.w3.org/Graphics/SVG/1.1/DTD/svg11.dtd" >
<!--
2020-7-11: Created with FontForge (http://fontforge.org)
-->
<svg xmlns="http://www.w3.org/2000/svg" xmlns:xlink="http://www.w3.org/1999/xlink" version="1.1">
<metadata>
Created by FontForge 20190801 at Tue Jul 14 19:14:22 2020
 By Unknown
Copyright (c) 2020, Yaya MNH48.
Released under SIL Open Font License.

Font for Aksara Beringin.
This font variant is meant for vertical setting.
It will displayed wrongly on horizontal.
http://jawi.mnh48.moe/mnh48-beringin
</metadata>
<defs>
<font id="MNH48BeringinTegak" horiz-adv-x="800" vert-adv-y="1000" >
  <font-face 
    font-family="MNH48 Beringin"
    font-weight="400"
    font-stretch="normal"
    units-per-em="1000"
    panose-1="2 0 5 3 0 0 0 0 0 0"
    ascent="800"
    descent="-200"
    x-height="658"
    cap-height="660"
    bbox="-20 139.993 821 660.007"
    underline-thickness="50"
    underline-position="-100"
    unicode-range="U+0020-007A"
  />
    <missing-glyph />
    <glyph glyph-name="uni0000" vert-adv-y="0" 
d="M340 340c-30 0 -70 30 -70 60s40 70 70 70s60 -40 60 -70s-30 -60 -60 -60z" />
    <glyph glyph-name="space" unicode=" " horiz-adv-x="500" vert-adv-y="0" 
 />
    <glyph glyph-name="exclam" unicode="!" vert-adv-y="0" 
d="M0 660h510v-80h-304c31 -63 41 -140 41 -140h113c108 0 137 -220 137 -220h3v-80h-87h-1c-121 0 -208 149 -239 220h-3v3c-111 -1 -170 -3 -170 -3v80h160c-13 62 -40 137 -100 140h-60v3c-31 0 0 -3 0 -3v3v77zM256 360c33 -34 76 -139 154 -140h10
c-11 63 -46 137 -110 140h-54z" />
    <glyph glyph-name="quotedbl" unicode="&#x22;" vert-adv-y="0" 
 />
    <glyph glyph-name="numbersign" unicode="#" vert-adv-y="0" 
 />
    <glyph glyph-name="dollar" unicode="$" vert-adv-y="0" 
 />
    <glyph glyph-name="percent" unicode="%" vert-adv-y="0" 
 />
    <glyph glyph-name="ampersand" unicode="&#x26;" vert-adv-y="0" 
 />
    <glyph glyph-name="quotesingle" unicode="'" vert-adv-y="0" 
 />
    <glyph glyph-name="parenleft" unicode="(" vert-adv-y="0" 
d="M50 140v520h310v-80h-230v-140h690v-80h-690v-220h-80z" />
    <glyph glyph-name="parenright" unicode=")" vert-adv-y="0" 
d="M750 660v-520h-310v80h230v140h-690v80h690v220h80z" />
    <glyph glyph-name="asterisk" unicode="*" vert-adv-y="0" 
 />
    <glyph glyph-name="plus" unicode="+" vert-adv-y="0" 
 />
    <glyph glyph-name="comma" unicode="," vert-adv-y="0" 
d="M0 440h360c108 0 137 -220 137 -220h3v-80h-87h-1c-122 0 -210 153 -240 223c-112 -1 -172 -3 -172 -3v80zM253 362c34 -31 77 -141 157 -142c12 0 10 0 10 0c-11 63 -46 137 -110 140c-28 1 -16 2 -57 2z" />
    <glyph glyph-name="hyphen" unicode="-" vert-adv-y="0" 
 />
    <glyph glyph-name="period" unicode="." vert-adv-y="0" 
d="M0 660h110c108 0 137 -220 137 -220h113c108 0 137 -220 137 -220h3v-80h-87c-121 -1 -209 149 -240 220h-3v3c-111 0 -170 -3 -170 -3v80h160c-12 62 -40 137 -100 140c-30 2 -49 3 -60 3v77zM0 583c-31 1 0 -3 0 -3v3zM256 360c34 -34 76 -139 154 -140c12 0 10 0 10 0
c-11 63 -46 137 -110 140h-54z" />
    <glyph glyph-name="slash" unicode="/" vert-adv-y="0" 
d="M420 365v295h80v-220h200v-80h-200v-220h-80v225zM380 365v-225h-80v220h-200v80h200v220h80v-295z" />
    <glyph glyph-name="zero" unicode="0" vert-adv-y="0" 
d="M300 440v220h80v-220h220v-80h-220v-220h-80v220h-200v80h200z" />
    <glyph glyph-name="one" unicode="1" vert-adv-y="0" 
d="M226 360c31 -63 41 -140 41 -140h3v-80h-80s12 215 -90 220v80h500v-80h-374z" />
    <glyph glyph-name="two" unicode="2" vert-adv-y="0" 
d="M330 360v-220h-80s-81 159 -150 220v80h150v220h80v-220h270v-80h-270z" />
    <glyph glyph-name="three" unicode="3" vert-adv-y="0" 
d="M226 440c31 63 41 140 41 140h3v80h-80s12 -215 -90 -220v-80h500v80h-374z" />
    <glyph glyph-name="four" unicode="4" vert-adv-y="0" 
d="M330 440v220h-80s-81 -159 -150 -220v-80h150v-220h80v220h270v80h-270z" />
    <glyph glyph-name="five" unicode="5" vert-adv-y="0" 
d="M600 440h-500v-80s42 -220 150 -220h120v77c-9 0 -31 0 -80 3c-60 3 -88 78 -100 140h410v80zM370 217v3s12 -2 0 -3z" />
    <glyph glyph-name="six" unicode="6" vert-adv-y="0" 
d="M600 440h-410v220h-90v-300s42 -220 150 -220h120v77c-9 0 -31 0 -80 3c-60 3 -89 78 -101 140h411v80zM370 217v3s12 -2 0 -3z" />
    <glyph glyph-name="seven" unicode="7" vert-adv-y="0" 
d="M600 360h-500v80s42 220 150 220h120v-77c-9 0 -31 0 -80 -3c-60 -3 -88 -78 -100 -140h410v-80zM370 583v-3s12 2 0 3z" />
    <glyph glyph-name="eight" unicode="8" vert-adv-y="0" 
d="M600 360h-410v-220h-90v300s42 220 150 220h120v-77c-9 0 -31 0 -80 -3c-60 -3 -89 -78 -101 -140h411v-80zM370 583v-3s12 2 0 3z" />
    <glyph glyph-name="nine" unicode="9" vert-adv-y="0" 
d="M436 440c-23 69 -60 140 -126 140s-113 -71 -126 -140h252zM310 140c-136 0 -210 124 -210 260s74 260 210 260c123 0 190 -101 210 -220h80v-80h-80c-20 -119 -87 -220 -210 -220zM184 360c13 -69 60 -140 126 -140s103 71 126 140h-252z" />
    <glyph glyph-name="colon" unicode=":" vert-adv-y="0" 
d="M480 220v-80c-70 17 -160 70 -160 70c-1 45 -30 132 -20 150h-320v80h320c-10 18 29 95 30 140c0 0 80 63 150 80v-80l-90 -30v-100l-30 -50l30 -40v-100z" />
    <glyph glyph-name="semicolon" unicode=";" vert-adv-y="0" 
d="M0 260h170v-80h-170v80zM0 440h360c108 0 137 -220 137 -220h3v-80h-87c-122 -1 -211 153 -241 223c-112 0 -172 -3 -172 -3v80zM253 362c34 -31 77 -141 157 -142c12 0 10 0 10 0c-11 63 -46 137 -110 140c-28 1 -16 2 -57 2z" />
    <glyph glyph-name="less" unicode="&#x3c;" vert-adv-y="0" 
d="M50 140v520h310v-70h-230v-40h150v-60h-150v-50h690v-80h-690v-220h-80z" />
    <glyph glyph-name="greater" unicode="&#x3e;" vert-adv-y="0" 
d="M750 660v-520h-310v70h230v40h-150v60h150v50h-690v80h690v220h80z" />
    <glyph glyph-name="question" unicode="?" vert-adv-y="0" 
d="M544 476l-244 184l-57 -56l244 -185zM0 660h110c108 0 137 -220 137 -220h113c108 0 137 -220 137 -220h3v-80h-87c-121 -1 -209 149 -240 220h-3v3c-111 0 -170 -3 -170 -3v80h160c-12 62 -40 137 -100 140c-30 2 -49 3 -60 3v77zM0 583c-31 1 0 -3 0 -3v3zM256 360
c34 -34 76 -139 154 -140c12 0 10 0 10 0c-11 63 -46 137 -110 140h-54z" />
    <glyph glyph-name="at" unicode="@" vert-adv-y="0" 
 />
    <glyph glyph-name="A" unicode="A" vert-adv-y="0" 
d="M505 225c78 9 165 98 165 175c0 79 -91 180 -170 180s-166 -136 -166 -215l-81 -5h-273v80h273c20 119 124 220 247 220c136 0 250 -124 250 -260c0 -134 -111 -257 -245 -260c-2 0 -3 84 0 85z" />
    <glyph glyph-name="B" unicode="B" vert-adv-y="0" 
d="M300 220c79 0 170 101 170 180s-91 180 -170 180c-35 0 -72 -19 -103 -48l-63 59c45 43 103 69 166 69c123 0 227 -101 247 -220h273v-80h-273c-20 -119 -124 -220 -247 -220c-63 0 -121 27 -166 70l63 59c31 -29 68 -49 103 -49z" />
    <glyph glyph-name="C" unicode="C" vert-adv-y="0" 
 />
    <glyph glyph-name="D" unicode="D" vert-adv-y="0" 
d="M300 340c-30 0 -70 30 -70 60s40 70 70 70s60 -40 60 -70s-30 -60 -60 -60zM300 220c79 0 170 101 170 180s-91 180 -170 180s-170 -101 -170 -180s91 -180 170 -180zM300 140c-136 0 -250 124 -250 260s114 260 250 260c123 0 227 -101 247 -220h273v-80h-273
c-20 -119 -124 -220 -247 -220z" />
    <glyph glyph-name="E" unicode="E" vert-adv-y="0" 
d="M660 660h80v-220h80v-80s-32 1 -80 1v-221h-80v520zM580 657v-367c0 -108 -220 -150 -220 -150h-90s-8 215 -110 220c-39 2 -71 3 -96 3c-50 0 -74 -3 -74 -3v80h220c96 0 130 -174 136 -213c63 12 151 38 154 103c2 39 3 89 3 137c0 97 -3 190 -3 190h80z" />
    <glyph glyph-name="F" unicode="F" vert-adv-y="0" 
 />
    <glyph glyph-name="G" unicode="G" vert-adv-y="0" 
d="M490 660c70 -17 150 -130 150 -130v-11c0 -39 -5 -63 -15 -79h195v-80h-510v80h135h5h21c32 4 69 27 69 57c0 24 -23 53 -90 83h-220c-102 -5 -140 -220 -140 -220h-80v80h3s49 220 157 220h320z" />
    <glyph glyph-name="H" unicode="H" vert-adv-y="0" 
d="M555 230c78 9 115 93 115 170c0 79 -91 180 -170 180s-166 -136 -166 -215l-81 -5h-273v80h273c20 119 124 220 247 220c136 0 250 -124 250 -260c0 -134 -91 -257 -225 -260h-65l-1 310h81l-1 -220h16z" />
    <glyph glyph-name="I" unicode="I" vert-adv-y="0" 
 />
    <glyph glyph-name="J" unicode="J" vert-adv-y="0" 
 />
    <glyph glyph-name="K" unicode="K" vert-adv-y="0" 
d="M820 440l1 -80h-570v80h569zM451 491c-33 50 -100 89 -150 89c-79 0 -170 -101 -170 -180s91 -180 170 -180c50 0 117 30 150 80l70 -30c-42 -84 -124 -130 -220 -130c-136 0 -250 124 -250 260s114 260 250 260c90 0 176 -42 220 -119c4 -7 -73 -43 -70 -50z" />
    <glyph glyph-name="L" unicode="L" vert-adv-y="0" 
d="M530 440v-80h-550v80h273c20 119 124 220 247 220c136 0 250 -124 250 -260c0 -134 -43 -257 -310 -260c-2 0 -3 85 0 85c211 9 230 98 230 175c0 79 -91 180 -170 180c-57 0 -118 -71 -148 -140h178z" />
    <glyph glyph-name="M" unicode="M" vert-adv-y="0" 
d="M300 220c79 0 170 101 170 180s-91 180 -170 180s-170 -101 -170 -180s91 -180 170 -180zM300 140c-136 0 -250 124 -250 260s114 260 250 260c123 0 227 -101 247 -220h273v-80h-273c-20 -119 -124 -220 -247 -220z" />
    <glyph glyph-name="N" unicode="N" vert-adv-y="0" 
d="M500 340c-30 0 -70 30 -70 60s40 70 70 70s60 -40 60 -70s-30 -60 -60 -60zM505 225c78 9 165 98 165 175c0 79 -91 180 -170 180s-166 -136 -166 -215l-81 -5h-273v80h273c20 119 124 220 247 220c136 0 250 -124 250 -260c0 -134 -111 -257 -245 -260c-2 0 -3 84 0 85z
" />
    <glyph glyph-name="O" unicode="O" vert-adv-y="0" 
 />
    <glyph glyph-name="P" unicode="P" vert-adv-y="0" 
d="M300 140c-136 0 -250 124 -250 260s114 260 250 260c123 0 227 -101 247 -220h273v-80h-273c-20 -119 -124 -220 -247 -220zM463 440c-23 69 -97 140 -163 140c-79 0 -170 -101 -170 -180s91 -180 170 -180c66 0 140 71 163 140h-213v80h213z" />
    <glyph glyph-name="Q" unicode="Q" vert-adv-y="0" 
 />
    <glyph glyph-name="R" unicode="R" vert-adv-y="0" 
d="M463 440c-23 69 -97 140 -163 140c-35 0 -72 -19 -103 -48l-63 59c45 43 103 69 166 69c123 0 227 -101 247 -220h273v-80h-273c-20 -119 -124 -220 -247 -220c-63 0 -121 27 -166 70l63 59c31 -29 68 -49 103 -49c66 0 140 71 163 140h-203v80h203z" />
    <glyph glyph-name="S" unicode="S" vert-adv-y="0" 
d="M600 660h80v-220h140v-80s-92 1 -140 1v-221h-80v520zM290 220c79 0 170 101 170 180s-91 180 -170 180s-170 -101 -170 -180s91 -180 170 -180zM290 140c-136 0 -250 124 -250 260s114 260 250 260c123 0 227 -101 247 -220h3v-80h-3c-20 -119 -124 -220 -247 -220z" />
    <glyph glyph-name="T" unicode="T" vert-adv-y="0" 
d="M300 340c-30 0 -70 30 -70 60s40 70 70 70s60 -40 60 -70s-30 -60 -60 -60zM300 220c79 0 170 101 170 180s-91 180 -170 180c-35 0 -72 -19 -103 -48l-63 59c45 43 103 69 166 69c123 0 227 -101 247 -220h273v-80h-273c-20 -119 -124 -220 -247 -220
c-63 0 -121 27 -166 70l63 59c31 -29 68 -49 103 -49z" />
    <glyph glyph-name="U" unicode="U" vert-adv-y="0" 
 />
    <glyph glyph-name="V" unicode="V" vert-adv-y="0" 
 />
    <glyph glyph-name="W" unicode="W" vert-adv-y="0" 
 />
    <glyph glyph-name="X" unicode="X" vert-adv-y="0" 
d="M524 354l-215 -205l-86 37l234 214zM505 225c78 9 165 98 165 175c0 79 -91 180 -170 180s-166 -136 -166 -215l-81 -5h-273v80h273c20 119 124 220 247 220c136 0 250 -124 250 -260c0 -134 -111 -257 -245 -260c-2 0 -3 84 0 85z" />
    <glyph glyph-name="Y" unicode="Y" vert-adv-y="0" 
d="M490 140h-320c-108 0 -157 220 -157 220h-3v80h80c0 0 38 -215 140 -220h220c152 68 79 132 21 140h-21h-5h-135v80h510v-80h-195c10 -18 16 -45 15 -90c0 0 -80 -113 -150 -130z" />
    <glyph glyph-name="Z" unicode="Z" vert-adv-y="0" 
 />
    <glyph glyph-name="bracketleft" unicode="[" vert-adv-y="0" 
d="M50 660h80v-220h690v-80h-690v-140h230v-80h-310v520z" />
    <glyph glyph-name="backslash" unicode="\" vert-adv-y="0" 
 />
    <glyph glyph-name="bracketright" unicode="]" vert-adv-y="0" 
d="M750 140h-80v220h-690v80h690v140h-230v80h310v-520z" />
    <glyph glyph-name="asciicircum" unicode="^" vert-adv-y="0" 
 />
    <glyph glyph-name="underscore" unicode="_" vert-adv-y="0" 
 />
    <glyph glyph-name="grave" unicode="`" vert-adv-y="0" 
 />
    <glyph glyph-name="a" unicode="a" vert-adv-y="0" 
d="M580 440h240v-80s-31.9209 0.164062 -80 0.829102l-81 -0.829102h-79v-70c0 -108 -220 -150 -220 -150h-90s-8 215 -110 220c-117 6 -169 0 -169 0v80h219c97 0 130 -174 136 -212c64 11 151 38 154 102c6 117 0 327 0 327h80v-217z" />
    <glyph glyph-name="b" unicode="b" vert-adv-y="0" 
d="M0 140h460c108 0 137 220 137 220h223v80h-300s-8 -215 -110 -220c-117 -6 -410 0 -410 0v-80zM0 360h350v80h-350v-80z" />
    <glyph glyph-name="c" unicode="c" vert-adv-y="0" 
d="M220 140h460c108 0 137 220 137 220h3v80h-80s-8 -215 -110 -220c-117 -6 -410 0 -410 0v-80zM0 360h460c108 0 137 220 137 220h3v80h-110c-182 1 -238 -103 -268 -223c-112 0 -222 3 -222 3v-80zM303 438c34 81 57 141 187 142h30c-11 -63 -46 -137 -110 -140
c-28 -1 -66 -2 -107 -2z" />
    <glyph glyph-name="d" unicode="d" vert-adv-y="0" 
d="M610 140h-450c-108 0 -147 220 -147 220h-3v80h80s8 -215 110 -220c117 -6 410 0 410 0v-80zM820 360h-510v80h510v-80z" />
    <glyph glyph-name="e" unicode="e" vert-adv-y="0" 
d="M580 440h240v-80s-32 0 -80 1l-82 -1h-78v-70c0 -108 -220 -150 -220 -150h-90s-8 215 -110 220h-30v2c-96 4 -140 -2 -140 -2v80h512c1 106 -2 218 -2 218h80v-218zM306 360c25 -51 36 -111 39 -132c64 11 152 37 155 102c0 9 1 20 1 30h-195z" />
    <glyph glyph-name="f" unicode="f" vert-adv-y="0" 
d="M400 440h-190v-80h190v80zM610 140h-450c-108 0 -147 220 -147 220h-3v80h80s8 -215 110 -220c117 -6 410 0 410 0v-80zM0 660h460c108 0 137 -220 137 -220h223v-80h-300s-8 215 -110 220c-117 6 -410 0 -410 0v80z" />
    <glyph glyph-name="g" unicode="g" vert-adv-y="0" 
d="M600 140h-460c-108 0 -137 220 -137 220h-3v80h80s8 -215 110 -220c117 -6 410 0 410 0v-80zM820 360h-460c-108 0 -137 220 -137 220h-3v80h110c182 1 238 -103 268 -223c112 0 222 3 222 3v-80zM517 438c-34 81 -57 141 -187 142h-30c11 -63 46 -137 110 -140
c28 -1 66 -2 107 -2z" />
    <glyph glyph-name="h" unicode="h" vert-adv-y="0" 
d="M610 140h-450c-108 0 -147 220 -147 220h-3v80h80s8 -215 110 -220c117 -6 410 0 410 0v-80zM0 660h460c108 0 137 -220 137 -220h223v-80h-300s-8 215 -110 220c-117 6 -410 0 -410 0v80z" />
    <glyph glyph-name="i" unicode="i" vert-adv-y="0" 
d="M464 476l-245 184l-56 -56l244 -185zM580 440h240v-80s-32 -1 -80 0h-81h-79v-70c0 -108 -220 -150 -220 -150h-90s-8 215 -110 220c-117 6 -170 0 -170 0v80h220c96 0 130 -175 136 -213c64 11 151 38 154 103c6 117 0 327 0 327h80v-217z" />
    <glyph glyph-name="j" unicode="j" vert-adv-y="0" 
d="M220 660h460c108 0 137 -220 137 -220h3v-80h-80s-8 215 -110 220c-117 6 -410 0 -410 0v80zM0 440h460c108 0 137 -220 137 -220h3v-80h-110c-182 -1 -238 103 -268 223c-112 0 -222 -3 -222 -3v80zM303 362c34 -81 57 -141 187 -142h30c-11 63 -46 137 -110 140
c-28 1 -66 2 -107 2z" />
    <glyph glyph-name="k" unicode="k" vert-adv-y="0" 
d="M600 660h-460c-108 0 -137 -220 -137 -220h-3v-80h80s8 215 110 220c117 6 410 0 410 0v80zM820 440h-460c-108 0 -137 -220 -137 -220h-3v-80h110c182 -1 238 103 268 223c112 0 222 -3 222 -3v80zM517 362c-34 -81 -57 -141 -187 -142h-30c11 63 46 137 110 140
c28 1 66 2 107 2z" />
    <glyph glyph-name="l" unicode="l" vert-adv-y="0" 
d="M610 660v-80s-293 6 -410 0c-69 -4 -94 -102 -104 -166c14 -57 54 -190 134 -194h220c152 68 79 132 21 140h-21h-5h-135v80h510v-80h-195c10 -18 16 -45 15 -90c0 0 -80 -113 -150 -130h-320c-108 0 -157 220 -157 220h-3v80h3s39 220 147 220h450z" />
    <glyph glyph-name="m" unicode="m" vert-adv-y="0" 
d="M140 140h320c108 0 137 220 137 220h223v80h-300s-8 -215 -110 -220h-200c-152 68 -79 132 -21 140h21h5h135v80h-350v-80h35c-10 -18 -16 -45 -15 -90c1 -31 61 -113 120 -130z" />
    <glyph glyph-name="n" unicode="n" vert-adv-y="0" 
d="M140 660h320c108 0 137 -220 137 -220h223v-80h-300s-8 215 -110 220h-200c-152 -68 -79 -132 -21 -140h21h5h135v-80h-350v80h35c-10 18 -16 45 -15 90c1 31 61 113 120 130z" />
    <glyph glyph-name="o" unicode="o" vert-adv-y="0" 
d="M580 440h240v-80s-32 -1 -80 0h-81h-79v-70c0 -108 -220 -150 -220 -150h-90s-8 215 -110 220c-117 6 -170 0 -170 0v80h220c96 0 130 -175 136 -213c64 11 151 38 154 103c0 10 1 19 1 30c-185 0 -193 220 -193 220h2v80h240v-3h30v-217zM503 443c0 48 0 98 -1 137h-112
c0 -57 36 -136 113 -137z" />
    <glyph glyph-name="p" unicode="p" vert-adv-y="0" 
d="M0 660h460c108 0 137 -220 137 -220h223v-80h-300s-8 215 -110 220c-117 6 -410 0 -410 0v80zM0 440h350v-80h-350v80z" />
    <glyph glyph-name="q" unicode="q" vert-adv-y="0" 
d="M517 362c-34 -81 -57 -141 -187 -142h-30c11 63 46 137 110 140c28 1 66 2 107 2zM600 660h-460c-108 0 -137 -220 -137 -220h-3v-80h80s8 215 110 220c117 6 410 0 410 0v80zM740 440v220h-80v-220h-300c-108 0 -137 -220 -137 -220h-3v-80h110c182 -1 238 103 268 223
c21 0 42 -1 62 -1v-222h80v221c48 -1 80 -1 80 -1v80h-80z" />
    <glyph glyph-name="r" unicode="r" vert-adv-y="0" 
d="M610 140v80s-293 -6 -410 0c-69 4 -94 102 -104 166c14 57 54 190 134 194h220c152 -68 79 -132 21 -140h-21h-5h-135v-80h510v80h-195c10 18 16 45 15 90c0 0 -80 113 -150 130h-320c-108 0 -157 -220 -157 -220h-3v-80h3s39 -220 147 -220h450z" />
    <glyph glyph-name="s" unicode="s" vert-adv-y="0" 
d="M140 140h320c108 0 137 220 137 220h223v80h-223s-29 220 -137 220h-460v-80s293 6 410 0c74 -4 98 -118 106 -180c-8 -62 -32 -176 -106 -180h-200c-152 68 -79 132 -21 140h21h5h135v80h-350v-80h35c-10 -18 -16 -45 -15 -90c1 -31 61 -113 120 -130z" />
    <glyph glyph-name="t" unicode="t" vert-adv-y="0" 
d="M610 660h-450c-108 0 -147 -220 -147 -220h-3v-80h80s8 215 110 220c117 6 410 0 410 0v80zM820 440h-510v-80h510v80z" />
    <glyph glyph-name="u" unicode="u" vert-adv-y="0" 
d="M580 360v-70c0 -108 -220 -150 -220 -150h-90s-8 215 -110 220c-117 6 -170 0 -170 0v80h220c96 0 129 -174 135 -212c64 11 152 37 155 102l1 234l-131 -104l-70 50l190 148h90v-218h240v-80s-32 0 -80 1l-90 -1h-70z" />
    <glyph glyph-name="v" unicode="v" vert-adv-y="0" 
d="M400 360h-190v80h190v-80zM610 660h-450c-108 0 -147 -220 -147 -220h-3v-80h80s8 215 110 220c117 6 410 0 410 0v80zM0 140h460c108 0 137 220 137 220h223v80h-300s-8 -215 -110 -220c-117 -6 -410 0 -410 0v-80z" />
    <glyph glyph-name="w" unicode="w" vert-adv-y="0" 
d="M660 660v-520h80v221c48 -1 80 -1 80 -1v80h-80v220h-80zM580 657v-367c0 -108 -220 -150 -220 -150h-90s-8 215 -110 220c-117 6 -170 0 -170 0v80h220c96 0 130 -175 136 -213c64 11 151 38 154 103l2 233l-132 -103l-70 50l190 147h90z" />
    <glyph glyph-name="x" unicode="x" vert-adv-y="0" 
d="M140 660h320c108 0 140 -220 140 -220h70v220h80v-220h70v-80h-70v-220h-80v220h-70s-32 -220 -140 -220h-460v80s293 -6 410 0c74 4 98 118 106 180c-8 62 -32 176 -106 180h-200c-152 -68 -79 -132 -21 -140h21h5h135v-80h-350v80h35c-10 18 -16 45 -15 90
c1 31 61 113 120 130z" />
    <glyph glyph-name="y" unicode="y" vert-adv-y="0" 
d="M464 476l-57 -57l-244 185l56 56zM660 660h80v-220h80v-80s-32 1 -80 1v-221h-80v520zM580 657v-367c0 -108 -220 -150 -220 -150h-90s-8 215 -110 220c-39 2 -71 3 -96 3c-50 0 -74 -3 -74 -3v80h220c96 0 130 -174 136 -213c63 12 151 38 154 103c2 39 3 89 3 137
c0 97 -3 190 -3 190h80z" />
    <glyph glyph-name="z" unicode="z" vert-adv-y="0" 
d="M130 660h320c108 0 137 -220 137 -220h223v-80h-223s-29 -220 -137 -220h-460v80s293 -6 410 0c74 4 98 118 106 180c-8 62 -32 176 -106 180h-200c-152 -68 -79 -132 -21 -140h21h5h135v-80h-350v80h35c-10 18 -16 45 -15 90c1 31 61 113 120 130z" />
  </font>
</defs>
</svg>
